<svg id="icon-google" xmlns="http://www.w3.org/2000/svg" width="19.767" height="20" viewBox="0 0 19.767 20">
  <path id="Path" d="M9.65,2.038A11.777,11.777,0,0,0,9.476,0H0V3.862H5.427A4.642,4.642,0,0,1,3.418,6.91V9.416H6.656A9.787,9.787,0,0,0,9.65,2.038Z" transform="translate(10.117 8.171)" fill="#4285f4"/>
  <path id="Path-2" data-name="Path" d="M8.981,8.093a9.641,9.641,0,0,0,6.662-2.417L12.4,3.175a6.029,6.029,0,0,1-3.419.956A6.014,6.014,0,0,1,3.342,0H0V2.579A10.055,10.055,0,0,0,8.981,8.093Z" transform="translate(1.089 11.907)" fill="#34a853"/>
  <path id="Path-3" data-name="Path" d="M4.436,6.438a5.986,5.986,0,0,1,0-3.849V0H1.076a10.005,10.005,0,0,0,0,9.027Z" transform="translate(0 5.525)" fill="#fbbc04"/>
  <path id="Path-4" data-name="Path" d="M8.989,3.961a5.482,5.482,0,0,1,3.859,1.5h0L15.72,2.6A9.7,9.7,0,0,0,8.989,0,10.063,10.063,0,0,0,0,5.516L3.341,8.093A6.013,6.013,0,0,1,8.989,3.961Z" transform="translate(1.089)" fill="#ea4335"/>
</svg>
