<svg xmlns="http://www.w3.org/2000/svg" width="17.273" height="20" viewBox="0 0 17.273 20">
  <path id="path4" d="M3.716,19.193A10.365,10.365,0,0,1,2.23,17.46,11.9,11.9,0,0,1,.66,14.417,10.9,10.9,0,0,1,0,10.79,6.494,6.494,0,0,1,.892,7.325,5.195,5.195,0,0,1,5.284,4.788a6.077,6.077,0,0,1,1.953.443,6.392,6.392,0,0,0,1.55.445A9.414,9.414,0,0,0,10.5,5.152a5.817,5.817,0,0,1,2.335-.4,4.994,4.994,0,0,1,3.884,1.994,4.2,4.2,0,0,0-2.29,3.827,4.172,4.172,0,0,0,1.421,3.182,4.687,4.687,0,0,0,1.42.909c-.114.322-.234.631-.362.927a10.864,10.864,0,0,1-1.1,1.933,9.877,9.877,0,0,1-1.42,1.674,2.787,2.787,0,0,1-1.825.784,4.678,4.678,0,0,1-1.687-.392,4.936,4.936,0,0,0-1.814-.391,5.1,5.1,0,0,0-1.867.391A5.128,5.128,0,0,1,5.583,20L5.5,20A2.673,2.673,0,0,1,3.716,19.193ZM8.659,4.727a3.009,3.009,0,0,1-.023-.38,4.327,4.327,0,0,1,1.19-2.828A4.558,4.558,0,0,1,11.274.458,4.4,4.4,0,0,1,12.932,0a3.524,3.524,0,0,1,.022.4,4.206,4.206,0,0,1-1.121,2.8A3.961,3.961,0,0,1,8.9,4.736Q8.781,4.736,8.659,4.727Z" transform="translate(0)"/>
</svg>
