<svg xmlns="http://www.w3.org/2000/svg" width="462.5" height="209.687" viewBox="0 0 462.5 209.687">
  <g id="word" transform="translate(1492 3752.5)" opacity="0.6">
    <path id="word-2" data-name="word" d="M48.648,203.75A71.515,71.515,0,0,1,22.5,186.562a75.867,75.867,0,0,1-16.655-27.5A110.3,110.3,0,0,1,0,122.188a107.572,107.572,0,0,1,5.911-36.5A76.5,76.5,0,0,1,22.676,58.262C37.339,43.043,58.189,35,82.968,35c24.8,0,45.647,8.024,60.294,23.2a76.314,76.314,0,0,1,16.765,27.421,107.838,107.838,0,0,1,5.91,36.563,110.579,110.579,0,0,1-5.845,36.941,75.7,75.7,0,0,1-16.655,27.492,71.4,71.4,0,0,1-26.148,17.15,95.575,95.575,0,0,1-34.322,5.916A95.306,95.306,0,0,1,48.648,203.75ZM56.289,83.613A50.257,50.257,0,0,0,48.866,100.1a87.74,87.74,0,0,0-2.617,22.243,89.667,89.667,0,0,0,2.574,22.376,49.709,49.709,0,0,0,7.348,16.473,32.207,32.207,0,0,0,11.567,10.173,33.137,33.137,0,0,0,15.23,3.479,32.81,32.81,0,0,0,15.14-3.479,32.182,32.182,0,0,0,11.521-10.173,49.837,49.837,0,0,0,7.331-16.473,89.853,89.853,0,0,0,2.57-22.376,88.471,88.471,0,0,0-2.592-22.243,50.318,50.318,0,0,0-7.368-16.487,31.413,31.413,0,0,0-26.6-13.769A31.63,31.63,0,0,0,56.289,83.613Zm132.305,62.95V38.594h45.625v98.437c0,22.343,11.093,34.219,31.25,34.219,20.313,0,32.969-14.531,32.969-36.719V38.594h45.625v167.5H300V175.937h-.937c-8.282,21.094-24.845,33.281-50.157,33.281C212.657,209.219,188.594,185.625,188.594,146.562Zm197.343,14.375V72.968H362.344V38.594h23.594V0h45.626V38.594H462.5V72.968H431.563v80.157c0,12.812,6.25,18.906,19.688,18.906a73.812,73.812,0,0,0,11.093-.781v33.593c-4.687,1.094-12.5,1.875-21.719,1.875C401.25,206.718,385.937,193.594,385.937,160.937Z" transform="translate(-1492 -3752.5)" fill="#fff"/>
    <path id="word-3" data-name="word" d="M0,122.188C0,67.969,32.812,35,82.968,35s82.969,32.812,82.969,87.188c0,55.157-32.344,87.5-82.969,87.5S0,177.188,0,122.188Zm188.594,24.375V38.594h45.625v98.437c0,22.343,11.093,34.219,31.25,34.219,20.313,0,32.969-14.531,32.969-36.719V38.594h45.625v167.5H300V175.937h-.937c-8.282,21.094-24.845,33.281-50.157,33.281C212.657,209.219,188.594,185.625,188.594,146.562Zm197.343,14.375V72.968H362.344V38.594h23.594V0h45.626V38.594H462.5V72.968H431.563v80.157c0,12.812,6.25,18.906,19.688,18.906a73.812,73.812,0,0,0,11.093-.781v33.593c-4.687,1.094-12.5,1.875-21.719,1.875C401.25,206.718,385.937,193.594,385.937,160.937Z" transform="translate(-1492 -3752.5)" fill="none"/>
  </g>
</svg>
